<svg width="16" height="16" viewBox="0 0 16 16" fill="none" xmlns="http://www.w3.org/2000/svg">
<g opacity="0.4">
<path d="M7.59999 15.1667H5.06666C2.13999 15.1667 0.833328 13.86 0.833328 10.9334V8.40002C0.833328 5.47335 2.13999 4.16669 5.06666 4.16669H7.06666C7.34 4.16669 7.56666 4.39335 7.56666 4.66669C7.56666 4.94002 7.34 5.16669 7.06666 5.16669H5.06666C2.67999 5.16669 1.83333 6.01335 1.83333 8.40002V10.9334C1.83333 13.32 2.67999 14.1667 5.06666 14.1667H7.59999C9.98666 14.1667 10.8333 13.32 10.8333 10.9334V8.93335C10.8333 8.66002 11.06 8.43335 11.3333 8.43335C11.6067 8.43335 11.8333 8.66002 11.8333 8.93335V10.9334C11.8333 13.86 10.5267 15.1667 7.59999 15.1667Z" fill="#EFEDFF"/>
<path d="M11.3333 9.43335H9.2C7.32667 9.43335 6.56667 8.67335 6.56667 6.80001V4.66668C6.56667 4.46668 6.68667 4.28001 6.87333 4.20668C7.06 4.12668 7.27333 4.17335 7.42 4.31335L11.6867 8.58001C11.8267 8.72001 11.8733 8.94001 11.7933 9.12668C11.72 9.31335 11.5333 9.43335 11.3333 9.43335ZM7.56667 5.87335V6.80001C7.56667 8.12668 7.87333 8.43335 9.2 8.43335H10.1267L7.56667 5.87335Z" fill="#EFEDFF"/>
<path d="M10.4 1.83331H7.73334C7.46 1.83331 7.23334 1.60665 7.23334 1.33331C7.23334 1.05998 7.46 0.833313 7.73334 0.833313H10.4C10.6733 0.833313 10.9 1.05998 10.9 1.33331C10.9 1.60665 10.6733 1.83331 10.4 1.83331Z" fill="#EFEDFF"/>
<path d="M4.66667 3.83331C4.39334 3.83331 4.16667 3.60665 4.16667 3.33331C4.16667 1.95331 5.28667 0.833313 6.66667 0.833313H8.41334C8.68667 0.833313 8.91334 1.05998 8.91334 1.33331C8.91334 1.60665 8.68667 1.83331 8.41334 1.83331H6.66667C5.84 1.83331 5.16667 2.50665 5.16667 3.33331C5.16667 3.60665 4.94001 3.83331 4.66667 3.83331Z" fill="#EFEDFF"/>
<path d="M12.7933 11.8333C12.52 11.8333 12.2933 11.6066 12.2933 11.3333C12.2933 11.06 12.52 10.8333 12.7933 10.8333C13.5533 10.8333 14.1667 10.2133 14.1667 9.45998V5.33331C14.1667 5.05998 14.3933 4.83331 14.6667 4.83331C14.94 4.83331 15.1667 5.05998 15.1667 5.33331V9.45998C15.1667 10.7666 14.1 11.8333 12.7933 11.8333Z" fill="#EFEDFF"/>
<path d="M14.6667 5.83331H12.6667C10.8933 5.83331 10.1667 5.10664 10.1667 3.33331V1.33331C10.1667 1.13331 10.2867 0.946639 10.4733 0.873305C10.66 0.793305 10.8733 0.839972 11.02 0.979972L15.02 4.97997C15.16 5.11997 15.2067 5.33997 15.1267 5.52664C15.0533 5.71331 14.8667 5.83331 14.6667 5.83331ZM11.1667 2.53997V3.33331C11.1667 4.55331 11.4467 4.83331 12.6667 4.83331H13.46L11.1667 2.53997Z" fill="#EFEDFF"/>
</g>
</svg>
